<?xml version="1.0" encoding="utf-8"?>
<!-- Generator: Adobe Illustrator 26.5.0, SVG Export Plug-In . SVG Version: 6.00 Build 0)  -->
<svg version="1.1" id="V2_-_copie" xmlns="http://www.w3.org/2000/svg" xmlns:xlink="http://www.w3.org/1999/xlink" x="0px" y="0px"
	 viewBox="0 0 1500 1500" style="enable-background:new 0 0 1500 1500;" xml:space="preserve">
<style type="text/css">
	.st0{fill:url(#SVGID_1_);}
	.st1{fill:url(#SVGID_00000093875122502846139850000004925404918697502606_);}
	.st2{fill:url(#SVGID_00000031890430610707440990000013512947027146079930_);}
	.st3{fill:url(#SVGID_00000080201556961272412970000006768107714352628366_);}
	.st4{fill:url(#SVGID_00000045608429805908368760000003688225694029063095_);}
	.st5{fill:url(#SVGID_00000150812484422648344290000006184601425306478504_);}
	.st6{fill:url(#SVGID_00000095323894121211266930000012724550474663044520_);}
	.st7{fill:url(#SVGID_00000172416050730594256810000002914795281489503385_);}
	.st8{fill:url(#SVGID_00000056430049444876957510000000572835232515283366_);}
	.st9{fill:url(#SVGID_00000034783816379244861850000002440727180259857286_);}
	.st10{fill:url(#SVGID_00000048469220256403793760000009037922515856715939_);}
	.st11{fill:url(#SVGID_00000005261649564300789350000005474592892249400747_);}
	.st12{fill:url(#SVGID_00000169538379757353336810000015557470716028553857_);}
	.st13{fill:url(#SVGID_00000181780741578537932210000015200717223801357975_);}
	.st14{fill:url(#SVGID_00000126319341460929963350000009722981404640440233_);}
	.st15{fill:url(#SVGID_00000170975795064817715300000006148085733245735319_);}
	.st16{fill:url(#SVGID_00000009564455837132913950000000646914507405261221_);}
	.st17{fill:url(#SVGID_00000039124336588814073430000009958004973142138257_);}
	.st18{fill:url(#SVGID_00000003101660838048032390000009731102557845974954_);}
	.st19{fill:url(#SVGID_00000137110267154423846430000006764835311912689558_);}
	.st20{fill:url(#SVGID_00000163767945152663666940000009030304965913120172_);}
	.st21{fill:url(#SVGID_00000003081678193277668070000011084605926888524955_);}
	.st22{fill:url(#SVGID_00000148636181714420969950000000474138423950322339_);}
	.st23{fill:url(#SVGID_00000010277920150061880910000008618919600515730331_);}
	.st24{fill:url(#SVGID_00000045605084705265874440000017728261662337633157_);}
	.st25{fill:url(#SVGID_00000083791879783082401740000004564812020643443107_);}
	.st26{fill:url(#SVGID_00000078734647241199102310000010966028290827545485_);}
	.st27{fill:url(#SVGID_00000103953371443148372660000006241149116272803498_);}
	.st28{fill:url(#SVGID_00000147217677412814215850000010541453995342199182_);}
	.st29{fill:url(#SVGID_00000165956267111372842830000014588617034868737952_);}
	.st30{fill:url(#SVGID_00000145739996363450451580000000256571247389534887_);}
	.st31{fill:url(#SVGID_00000090989308522714277310000011334467290777918354_);}
	.st32{fill:url(#SVGID_00000089562400886957233870000006535441972007024303_);}
	.st33{fill:url(#SVGID_00000139275481489670726180000002860800257824051132_);}
	.st34{fill:url(#SVGID_00000031911720411764062040000003516301944796835733_);}
	.st35{fill:url(#SVGID_00000062892757758130306110000000154796932353028517_);}
	.st36{fill:url(#SVGID_00000132056637327014128220000005913558384296917653_);}
	.st37{fill:url(#SVGID_00000038408258308274311730000014582284120688471222_);}
	.st38{fill:url(#SVGID_00000041283937026261760810000013583199631403062686_);}
	.st39{fill:url(#SVGID_00000108290696162928665600000002624940873800306090_);}
	.st40{fill:url(#SVGID_00000071534719434167953050000017800914560493173639_);}
	.st41{fill:url(#SVGID_00000111883430708155508720000006720996683160233616_);}
	.st42{fill:none;stroke:#FFFFFF;stroke-width:25;stroke-miterlimit:10;}
	.st43{fill:#850E35;}
</style>
<g id="Logo_-_copie_3">
	<g id="Logo_-_color_-_copie_4">
		<g id="logo_-_copie_10">
			<g id="EQ_-_copie_11">
				<g>
					
						<linearGradient id="SVGID_1_" gradientUnits="userSpaceOnUse" x1="168.42" y1="747.9105" x2="1331.58" y2="747.9105" gradientTransform="matrix(1 0 0 -1 0 1497.9055)">
						<stop  offset="1.000000e-02" style="stop-color:#EE6983"/>
						<stop  offset="0.1" style="stop-color:#EF7289"/>
						<stop  offset="0.26" style="stop-color:#F48B9B"/>
						<stop  offset="0.45" style="stop-color:#FCB4B9"/>
						<stop  offset="0.52" style="stop-color:#FFC4C4"/>
						<stop  offset="0.99" style="stop-color:#FFF5E4"/>
					</linearGradient>
					<path class="st0" d="M750,584.8c-6.2,0-11.3,5.1-11.3,11.3v307.8c0,6.2,5.1,11.3,11.3,11.3s11.3-5.1,11.3-11.3V596.1
						C761.3,589.8,756.2,584.8,750,584.8z"/>
					
						<linearGradient id="SVGID_00000091698969568614006880000009358024003993592252_" gradientUnits="userSpaceOnUse" x1="168.42" y1="747.9105" x2="1331.58" y2="747.9105" gradientTransform="matrix(1 0 0 -1 0 1497.9055)">
						<stop  offset="1.000000e-02" style="stop-color:#EE6983"/>
						<stop  offset="0.1" style="stop-color:#EF7289"/>
						<stop  offset="0.26" style="stop-color:#F48B9B"/>
						<stop  offset="0.45" style="stop-color:#FCB4B9"/>
						<stop  offset="0.52" style="stop-color:#FFC4C4"/>
						<stop  offset="0.99" style="stop-color:#FFF5E4"/>
					</linearGradient>
					<path style="fill:url(#SVGID_00000091698969568614006880000009358024003993592252_);" d="M777.2,610.4
						c-6.2,0-11.3,5.1-11.3,11.3v256.5c0,6.2,5.1,11.3,11.3,11.3s11.3-5.1,11.3-11.3V621.7C788.5,615.5,783.4,610.4,777.2,610.4z"/>
					
						<linearGradient id="SVGID_00000049900170594040531390000011513784560170798003_" gradientUnits="userSpaceOnUse" x1="168.42" y1="747.9055" x2="1331.58" y2="747.9055" gradientTransform="matrix(1 0 0 -1 0 1497.9055)">
						<stop  offset="1.000000e-02" style="stop-color:#EE6983"/>
						<stop  offset="0.1" style="stop-color:#EF7289"/>
						<stop  offset="0.26" style="stop-color:#F48B9B"/>
						<stop  offset="0.45" style="stop-color:#FCB4B9"/>
						<stop  offset="0.52" style="stop-color:#FFC4C4"/>
						<stop  offset="0.99" style="stop-color:#FFF5E4"/>
					</linearGradient>
					<path style="fill:url(#SVGID_00000049900170594040531390000011513784560170798003_);" d="M804.3,594c-6.2,0-11.3,5.1-11.3,11.3
						v289.3c0,6.2,5.1,11.3,11.3,11.3s11.3-5.1,11.3-11.3V605.3C815.6,599.1,810.5,594,804.3,594L804.3,594z"/>
					
						<linearGradient id="SVGID_00000016033428966456232560000005425108990591949245_" gradientUnits="userSpaceOnUse" x1="168.42" y1="747.9105" x2="1331.58" y2="747.9105" gradientTransform="matrix(1 0 0 -1 0 1497.9055)">
						<stop  offset="1.000000e-02" style="stop-color:#EE6983"/>
						<stop  offset="0.1" style="stop-color:#EF7289"/>
						<stop  offset="0.26" style="stop-color:#F48B9B"/>
						<stop  offset="0.45" style="stop-color:#FCB4B9"/>
						<stop  offset="0.52" style="stop-color:#FFC4C4"/>
						<stop  offset="0.99" style="stop-color:#FFF5E4"/>
					</linearGradient>
					<path style="fill:url(#SVGID_00000016033428966456232560000005425108990591949245_);" d="M831.4,615.6
						c-6.2,0-11.3,5.1-11.3,11.3v246.2c0,6.2,5.1,11.3,11.3,11.3s11.3-5.1,11.3-11.3V626.9C842.8,620.6,837.7,615.6,831.4,615.6z"/>
					
						<linearGradient id="SVGID_00000018195219228728182050000017566086494932561551_" gradientUnits="userSpaceOnUse" x1="168.42" y1="747.9106" x2="1331.58" y2="747.9106" gradientTransform="matrix(1 0 0 -1 0 1497.9055)">
						<stop  offset="1.000000e-02" style="stop-color:#EE6983"/>
						<stop  offset="0.1" style="stop-color:#EF7289"/>
						<stop  offset="0.26" style="stop-color:#F48B9B"/>
						<stop  offset="0.45" style="stop-color:#FCB4B9"/>
						<stop  offset="0.52" style="stop-color:#FFC4C4"/>
						<stop  offset="0.99" style="stop-color:#FFF5E4"/>
					</linearGradient>
					<path style="fill:url(#SVGID_00000018195219228728182050000017566086494932561551_);" d="M858.6,666.9
						c-6.2,0-11.3,5.1-11.3,11.3v143.6c0,6.2,5.1,11.3,11.3,11.3s11.3-5.1,11.3-11.3V678.2C869.9,671.9,864.8,666.9,858.6,666.9
						L858.6,666.9z"/>
					
						<linearGradient id="SVGID_00000153705176824788734740000006267075228584706201_" gradientUnits="userSpaceOnUse" x1="168.42" y1="747.9106" x2="1331.58" y2="747.9106" gradientTransform="matrix(1 0 0 -1 0 1497.9055)">
						<stop  offset="1.000000e-02" style="stop-color:#EE6983"/>
						<stop  offset="0.1" style="stop-color:#EF7289"/>
						<stop  offset="0.26" style="stop-color:#F48B9B"/>
						<stop  offset="0.45" style="stop-color:#FCB4B9"/>
						<stop  offset="0.52" style="stop-color:#FFC4C4"/>
						<stop  offset="0.99" style="stop-color:#FFF5E4"/>
					</linearGradient>
					<path style="fill:url(#SVGID_00000153705176824788734740000006267075228584706201_);" d="M885.7,666.9
						c-6.2,0-11.3,5.1-11.3,11.3v143.6c0,6.2,5.1,11.3,11.3,11.3s11.3-5.1,11.3-11.3V678.2C897,671.9,892,666.9,885.7,666.9
						L885.7,666.9z"/>
					
						<linearGradient id="SVGID_00000168088871751147957470000011866552899590730637_" gradientUnits="userSpaceOnUse" x1="168.42" y1="747.9055" x2="1331.58" y2="747.9055" gradientTransform="matrix(1 0 0 -1 0 1497.9055)">
						<stop  offset="1.000000e-02" style="stop-color:#EE6983"/>
						<stop  offset="0.1" style="stop-color:#EF7289"/>
						<stop  offset="0.26" style="stop-color:#F48B9B"/>
						<stop  offset="0.45" style="stop-color:#FCB4B9"/>
						<stop  offset="0.52" style="stop-color:#FFC4C4"/>
						<stop  offset="0.99" style="stop-color:#FFF5E4"/>
					</linearGradient>
					<path style="fill:url(#SVGID_00000168088871751147957470000011866552899590730637_);" d="M912.9,599.2
						c-6.2,0-11.3,5.1-11.3,11.3v279.1c0,6.2,5.1,11.3,11.3,11.3s11.3-5.1,11.3-11.3V610.5C924.2,604.2,919.1,599.2,912.9,599.2
						L912.9,599.2z"/>
					
						<linearGradient id="SVGID_00000173151930432336245610000015713630278595925681_" gradientUnits="userSpaceOnUse" x1="168.42" y1="747.9105" x2="1331.58" y2="747.9105" gradientTransform="matrix(1 0 0 -1 0 1497.9055)">
						<stop  offset="1.000000e-02" style="stop-color:#EE6983"/>
						<stop  offset="0.1" style="stop-color:#EF7289"/>
						<stop  offset="0.26" style="stop-color:#F48B9B"/>
						<stop  offset="0.45" style="stop-color:#FCB4B9"/>
						<stop  offset="0.52" style="stop-color:#FFC4C4"/>
						<stop  offset="0.99" style="stop-color:#FFF5E4"/>
					</linearGradient>
					<path style="fill:url(#SVGID_00000173151930432336245610000015713630278595925681_);" d="M940,687.4c-6.2,0-11.3,5.1-11.3,11.3
						v102.6c0,6.2,5.1,11.3,11.3,11.3s11.3-5.1,11.3-11.3V698.7C951.3,692.4,946.3,687.4,940,687.4z"/>
					
						<linearGradient id="SVGID_00000096780163321710585820000015478017847292167040_" gradientUnits="userSpaceOnUse" x1="168.42" y1="747.9055" x2="1331.58" y2="747.9055" gradientTransform="matrix(1 0 0 -1 0 1497.9055)">
						<stop  offset="1.000000e-02" style="stop-color:#EE6983"/>
						<stop  offset="0.1" style="stop-color:#EF7289"/>
						<stop  offset="0.26" style="stop-color:#F48B9B"/>
						<stop  offset="0.45" style="stop-color:#FCB4B9"/>
						<stop  offset="0.52" style="stop-color:#FFC4C4"/>
						<stop  offset="0.99" style="stop-color:#FFF5E4"/>
					</linearGradient>
					<path style="fill:url(#SVGID_00000096780163321710585820000015478017847292167040_);" d="M967.2,647.4
						c-6.2,0-11.3,5.1-11.3,11.3v182.6c0,6.2,5.1,11.3,11.3,11.3s11.3-5.1,11.3-11.3V658.7C978.5,652.4,973.4,647.4,967.2,647.4z"/>
					
						<linearGradient id="SVGID_00000066486127493564247860000017786803195993958020_" gradientUnits="userSpaceOnUse" x1="168.42" y1="747.9055" x2="1331.58" y2="747.9055" gradientTransform="matrix(1 0 0 -1 0 1497.9055)">
						<stop  offset="1.000000e-02" style="stop-color:#EE6983"/>
						<stop  offset="0.1" style="stop-color:#EF7289"/>
						<stop  offset="0.26" style="stop-color:#F48B9B"/>
						<stop  offset="0.45" style="stop-color:#FCB4B9"/>
						<stop  offset="0.52" style="stop-color:#FFC4C4"/>
						<stop  offset="0.99" style="stop-color:#FFF5E4"/>
					</linearGradient>
					<path style="fill:url(#SVGID_00000066486127493564247860000017786803195993958020_);" d="M994.3,599.2
						c-6.2,0-11.3,5.1-11.3,11.3v279.1c0,6.2,5.1,11.3,11.3,11.3s11.3-5.1,11.3-11.3V610.5C1005.6,604.2,1000.6,599.2,994.3,599.2
						L994.3,599.2z"/>
					
						<linearGradient id="SVGID_00000168828346014071701870000017154769693965471134_" gradientUnits="userSpaceOnUse" x1="168.42" y1="747.9055" x2="1331.58" y2="747.9055" gradientTransform="matrix(1 0 0 -1 0 1497.9055)">
						<stop  offset="1.000000e-02" style="stop-color:#EE6983"/>
						<stop  offset="0.1" style="stop-color:#EF7289"/>
						<stop  offset="0.26" style="stop-color:#F48B9B"/>
						<stop  offset="0.45" style="stop-color:#FCB4B9"/>
						<stop  offset="0.52" style="stop-color:#FFC4C4"/>
						<stop  offset="0.99" style="stop-color:#FFF5E4"/>
					</linearGradient>
					<path style="fill:url(#SVGID_00000168828346014071701870000017154769693965471134_);" d="M1021.5,519.1
						c-6.2,0-11.3,5.1-11.3,11.3v439.1c0,6.2,5.1,11.3,11.3,11.3c6.2,0,11.3-5.1,11.3-11.3V530.4
						C1032.8,524.2,1027.7,519.1,1021.5,519.1z"/>
					
						<linearGradient id="SVGID_00000067942361792689731180000018013636776886269873_" gradientUnits="userSpaceOnUse" x1="168.42" y1="747.9105" x2="1331.58" y2="747.9105" gradientTransform="matrix(1 0 0 -1 0 1497.9055)">
						<stop  offset="1.000000e-02" style="stop-color:#EE6983"/>
						<stop  offset="0.1" style="stop-color:#EF7289"/>
						<stop  offset="0.26" style="stop-color:#F48B9B"/>
						<stop  offset="0.45" style="stop-color:#FCB4B9"/>
						<stop  offset="0.52" style="stop-color:#FFC4C4"/>
						<stop  offset="0.99" style="stop-color:#FFF5E4"/>
					</linearGradient>
					<path style="fill:url(#SVGID_00000067942361792689731180000018013636776886269873_);" d="M1048.6,541.7
						c-6.2,0-11.3,5.1-11.3,11.3v394c0,6.2,5.1,11.3,11.3,11.3s11.3-5.1,11.3-11.3V553C1059.9,546.8,1054.9,541.7,1048.6,541.7z"/>
					
						<linearGradient id="SVGID_00000139269919169883036420000010177712052511355808_" gradientUnits="userSpaceOnUse" x1="168.42" y1="747.9055" x2="1331.58" y2="747.9055" gradientTransform="matrix(1 0 0 -1 0 1497.9055)">
						<stop  offset="1.000000e-02" style="stop-color:#EE6983"/>
						<stop  offset="0.1" style="stop-color:#EF7289"/>
						<stop  offset="0.26" style="stop-color:#F48B9B"/>
						<stop  offset="0.45" style="stop-color:#FCB4B9"/>
						<stop  offset="0.52" style="stop-color:#FFC4C4"/>
						<stop  offset="0.99" style="stop-color:#FFF5E4"/>
					</linearGradient>
					<path style="fill:url(#SVGID_00000139269919169883036420000010177712052511355808_);" d="M1075.8,506.8
						c-6.2,0-11.3,5.1-11.3,11.3v463.8c0,6.2,5.1,11.3,11.3,11.3s11.3-5.1,11.3-11.3V518.1C1087.1,511.9,1082,506.8,1075.8,506.8z"
						/>
					
						<linearGradient id="SVGID_00000183929567837439877550000016081685741814404765_" gradientUnits="userSpaceOnUse" x1="168.42" y1="747.9006" x2="1331.58" y2="747.9006" gradientTransform="matrix(1 0 0 -1 0 1497.9055)">
						<stop  offset="1.000000e-02" style="stop-color:#EE6983"/>
						<stop  offset="0.1" style="stop-color:#EF7289"/>
						<stop  offset="0.26" style="stop-color:#F48B9B"/>
						<stop  offset="0.45" style="stop-color:#FCB4B9"/>
						<stop  offset="0.52" style="stop-color:#FFC4C4"/>
						<stop  offset="0.99" style="stop-color:#FFF5E4"/>
					</linearGradient>
					<path style="fill:url(#SVGID_00000183929567837439877550000016081685741814404765_);" d="M1102.9,572.5
						c-6.2,0-11.3,5.1-11.3,11.3v332.4c0,6.2,5.1,11.3,11.3,11.3s11.3-5.1,11.3-11.3V583.8C1114.2,577.5,1109.2,572.5,1102.9,572.5
						L1102.9,572.5z"/>
					
						<linearGradient id="SVGID_00000164487985602168968290000009745640319502520491_" gradientUnits="userSpaceOnUse" x1="168.42" y1="747.9055" x2="1331.58" y2="747.9055" gradientTransform="matrix(1 0 0 -1 0 1497.9055)">
						<stop  offset="1.000000e-02" style="stop-color:#EE6983"/>
						<stop  offset="0.1" style="stop-color:#EF7289"/>
						<stop  offset="0.26" style="stop-color:#F48B9B"/>
						<stop  offset="0.45" style="stop-color:#FCB4B9"/>
						<stop  offset="0.52" style="stop-color:#FFC4C4"/>
						<stop  offset="0.99" style="stop-color:#FFF5E4"/>
					</linearGradient>
					<path style="fill:url(#SVGID_00000164487985602168968290000009745640319502520491_);" d="M1130,647.4
						c-6.2,0-11.3,5.1-11.3,11.3v182.6c0,6.2,5.1,11.3,11.3,11.3s11.3-5.1,11.3-11.3V658.7C1141.4,652.4,1136.3,647.4,1130,647.4z"
						/>
					
						<linearGradient id="SVGID_00000059284720298565888240000012269303017074939539_" gradientUnits="userSpaceOnUse" x1="168.42" y1="747.9105" x2="1331.58" y2="747.9105" gradientTransform="matrix(1 0 0 -1 0 1497.9055)">
						<stop  offset="1.000000e-02" style="stop-color:#EE6983"/>
						<stop  offset="0.1" style="stop-color:#EF7289"/>
						<stop  offset="0.26" style="stop-color:#F48B9B"/>
						<stop  offset="0.45" style="stop-color:#FCB4B9"/>
						<stop  offset="0.52" style="stop-color:#FFC4C4"/>
						<stop  offset="0.99" style="stop-color:#FFF5E4"/>
					</linearGradient>
					<path style="fill:url(#SVGID_00000059284720298565888240000012269303017074939539_);" d="M1157.2,579.7
						c-6.2,0-11.3,5.1-11.3,11.3V909c0,6.2,5.1,11.3,11.3,11.3s11.3-5.1,11.3-11.3V591C1168.5,584.7,1163.4,579.7,1157.2,579.7z"/>
					
						<linearGradient id="SVGID_00000085224654864470379380000007009441773737499794_" gradientUnits="userSpaceOnUse" x1="168.42" y1="747.9055" x2="1331.58" y2="747.9055" gradientTransform="matrix(1 0 0 -1 0 1497.9055)">
						<stop  offset="1.000000e-02" style="stop-color:#EE6983"/>
						<stop  offset="0.1" style="stop-color:#EF7289"/>
						<stop  offset="0.26" style="stop-color:#F48B9B"/>
						<stop  offset="0.45" style="stop-color:#FCB4B9"/>
						<stop  offset="0.52" style="stop-color:#FFC4C4"/>
						<stop  offset="0.99" style="stop-color:#FFF5E4"/>
					</linearGradient>
					<path style="fill:url(#SVGID_00000085224654864470379380000007009441773737499794_);" d="M1184.3,662.8
						c-6.2,0-11.3,5.1-11.3,11.3v151.9c0,6.2,5.1,11.3,11.3,11.3s11.3-5.1,11.3-11.3V674.1C1195.6,667.8,1190.6,662.8,1184.3,662.8z
						"/>
					
						<linearGradient id="SVGID_00000063615887624090093730000014997982943365942151_" gradientUnits="userSpaceOnUse" x1="168.42" y1="747.9056" x2="1331.58" y2="747.9056" gradientTransform="matrix(1 0 0 -1 0 1497.9055)">
						<stop  offset="1.000000e-02" style="stop-color:#EE6983"/>
						<stop  offset="0.1" style="stop-color:#EF7289"/>
						<stop  offset="0.26" style="stop-color:#F48B9B"/>
						<stop  offset="0.45" style="stop-color:#FCB4B9"/>
						<stop  offset="0.52" style="stop-color:#FFC4C4"/>
						<stop  offset="0.99" style="stop-color:#FFF5E4"/>
					</linearGradient>
					<path style="fill:url(#SVGID_00000063615887624090093730000014997982943365942151_);" d="M1211.5,553
						c-6.2,0-11.3,5.1-11.3,11.3v371.4c0,6.2,5.1,11.3,11.3,11.3s11.3-5.1,11.3-11.3V564.3C1222.8,558,1217.7,553,1211.5,553
						L1211.5,553z"/>
					
						<linearGradient id="SVGID_00000174572740169222125630000007063365302246050693_" gradientUnits="userSpaceOnUse" x1="168.42" y1="747.9055" x2="1331.58" y2="747.9055" gradientTransform="matrix(1 0 0 -1 0 1497.9055)">
						<stop  offset="1.000000e-02" style="stop-color:#EE6983"/>
						<stop  offset="0.1" style="stop-color:#EF7289"/>
						<stop  offset="0.26" style="stop-color:#F48B9B"/>
						<stop  offset="0.45" style="stop-color:#FCB4B9"/>
						<stop  offset="0.52" style="stop-color:#FFC4C4"/>
						<stop  offset="0.99" style="stop-color:#FFF5E4"/>
					</linearGradient>
					<path style="fill:url(#SVGID_00000174572740169222125630000007063365302246050693_);" d="M1238.6,599.2
						c-6.2,0-11.3,5.1-11.3,11.3v279.1c0,6.2,5.1,11.3,11.3,11.3s11.3-5.1,11.3-11.3V610.5C1249.9,604.2,1244.9,599.2,1238.6,599.2
						L1238.6,599.2z"/>
					
						<linearGradient id="SVGID_00000041287504128423053710000008400959700551835801_" gradientUnits="userSpaceOnUse" x1="168.42" y1="747.9055" x2="1331.58" y2="747.9055" gradientTransform="matrix(1 0 0 -1 0 1497.9055)">
						<stop  offset="1.000000e-02" style="stop-color:#EE6983"/>
						<stop  offset="0.1" style="stop-color:#EF7289"/>
						<stop  offset="0.26" style="stop-color:#F48B9B"/>
						<stop  offset="0.45" style="stop-color:#FCB4B9"/>
						<stop  offset="0.52" style="stop-color:#FFC4C4"/>
						<stop  offset="0.99" style="stop-color:#FFF5E4"/>
					</linearGradient>
					<path style="fill:url(#SVGID_00000041287504128423053710000008400959700551835801_);" d="M1265.8,660.7
						c-6.2,0-11.3,5.1-11.3,11.3v156c0,6.2,5.1,11.3,11.3,11.3s11.3-5.1,11.3-11.3V672C1277.1,665.8,1272,660.7,1265.8,660.7z"/>
					
						<linearGradient id="SVGID_00000153693771583148443210000013004758769245140648_" gradientUnits="userSpaceOnUse" x1="168.42" y1="747.9005" x2="1331.58" y2="747.9005" gradientTransform="matrix(1 0 0 -1 0 1497.9055)">
						<stop  offset="1.000000e-02" style="stop-color:#EE6983"/>
						<stop  offset="0.1" style="stop-color:#EF7289"/>
						<stop  offset="0.26" style="stop-color:#F48B9B"/>
						<stop  offset="0.45" style="stop-color:#FCB4B9"/>
						<stop  offset="0.52" style="stop-color:#FFC4C4"/>
						<stop  offset="0.99" style="stop-color:#FFF5E4"/>
					</linearGradient>
					<path style="fill:url(#SVGID_00000153693771583148443210000013004758769245140648_);" d="M1292.9,706.9
						c-6.2,0-11.3,5.1-11.3,11.3v63.6c0,6.2,5.1,11.3,11.3,11.3s11.3-5.1,11.3-11.3v-63.6C1304.2,711.9,1299.2,706.9,1292.9,706.9z"
						/>
					
						<linearGradient id="SVGID_00000057150514833182362160000015679280391044492962_" gradientUnits="userSpaceOnUse" x1="168.42" y1="747.9005" x2="1331.58" y2="747.9005" gradientTransform="matrix(1 0 0 -1 0 1497.9055)">
						<stop  offset="1.000000e-02" style="stop-color:#EE6983"/>
						<stop  offset="0.1" style="stop-color:#EF7289"/>
						<stop  offset="0.26" style="stop-color:#F48B9B"/>
						<stop  offset="0.45" style="stop-color:#FCB4B9"/>
						<stop  offset="0.52" style="stop-color:#FFC4C4"/>
						<stop  offset="0.99" style="stop-color:#FFF5E4"/>
					</linearGradient>
					<path style="fill:url(#SVGID_00000057150514833182362160000015679280391044492962_);" d="M207.1,706.9
						c-6.2,0-11.3,5.1-11.3,11.3v63.6c0,6.2,5.1,11.3,11.3,11.3s11.3-5.1,11.3-11.3v-63.6C218.4,711.9,213.3,706.9,207.1,706.9z"/>
					
						<linearGradient id="SVGID_00000128471078620723355000000004967590888027738536_" gradientUnits="userSpaceOnUse" x1="168.42" y1="747.9055" x2="1331.58" y2="747.9055" gradientTransform="matrix(1 0 0 -1 0 1497.9055)">
						<stop  offset="1.000000e-02" style="stop-color:#EE6983"/>
						<stop  offset="0.1" style="stop-color:#EF7289"/>
						<stop  offset="0.26" style="stop-color:#F48B9B"/>
						<stop  offset="0.45" style="stop-color:#FCB4B9"/>
						<stop  offset="0.52" style="stop-color:#FFC4C4"/>
						<stop  offset="0.99" style="stop-color:#FFF5E4"/>
					</linearGradient>
					<path style="fill:url(#SVGID_00000128471078620723355000000004967590888027738536_);" d="M234.2,640.2
						c-6.2,0-11.3,5.1-11.3,11.3v197c0,6.2,5.1,11.3,11.3,11.3s11.3-5.1,11.3-11.3v-197C245.5,645.2,240.5,640.2,234.2,640.2z"/>
					
						<linearGradient id="SVGID_00000025423402366449880220000010154888923324686757_" gradientUnits="userSpaceOnUse" x1="168.42" y1="747.9106" x2="1331.58" y2="747.9106" gradientTransform="matrix(1 0 0 -1 0 1497.9055)">
						<stop  offset="1.000000e-02" style="stop-color:#EE6983"/>
						<stop  offset="0.1" style="stop-color:#EF7289"/>
						<stop  offset="0.26" style="stop-color:#F48B9B"/>
						<stop  offset="0.45" style="stop-color:#FCB4B9"/>
						<stop  offset="0.52" style="stop-color:#FFC4C4"/>
						<stop  offset="0.99" style="stop-color:#FFF5E4"/>
					</linearGradient>
					<path style="fill:url(#SVGID_00000025423402366449880220000010154888923324686757_);" d="M261.4,666.9
						c-6.2,0-11.3,5.1-11.3,11.3v143.6c0,6.2,5.1,11.3,11.3,11.3s11.3-5.1,11.3-11.3V678.2C272.7,671.9,267.6,666.9,261.4,666.9
						L261.4,666.9z"/>
					
						<linearGradient id="SVGID_00000006668107669619597210000004357104676689095587_" gradientUnits="userSpaceOnUse" x1="168.42" y1="747.9105" x2="1331.58" y2="747.9105" gradientTransform="matrix(1 0 0 -1 0 1497.9055)">
						<stop  offset="1.000000e-02" style="stop-color:#EE6983"/>
						<stop  offset="0.1" style="stop-color:#EF7289"/>
						<stop  offset="0.26" style="stop-color:#F48B9B"/>
						<stop  offset="0.45" style="stop-color:#FCB4B9"/>
						<stop  offset="0.52" style="stop-color:#FFC4C4"/>
						<stop  offset="0.99" style="stop-color:#FFF5E4"/>
					</linearGradient>
					<path style="fill:url(#SVGID_00000006668107669619597210000004357104676689095587_);" d="M288.5,720.2
						c-6.2,0-11.3,5.1-11.3,11.3v37c0,6.2,5.1,11.3,11.3,11.3s11.3-5.1,11.3-11.3v-37C299.8,725.3,294.8,720.2,288.5,720.2z"/>
					
						<linearGradient id="SVGID_00000036968841217441843700000013480840845758085044_" gradientUnits="userSpaceOnUse" x1="168.42" y1="747.9028" x2="1331.58" y2="747.9028" gradientTransform="matrix(1 0 0 -1 0 1497.9055)">
						<stop  offset="1.000000e-02" style="stop-color:#EE6983"/>
						<stop  offset="0.1" style="stop-color:#EF7289"/>
						<stop  offset="0.26" style="stop-color:#F48B9B"/>
						<stop  offset="0.45" style="stop-color:#FCB4B9"/>
						<stop  offset="0.52" style="stop-color:#FFC4C4"/>
						<stop  offset="0.99" style="stop-color:#FFF5E4"/>
					</linearGradient>
					<path style="fill:url(#SVGID_00000036968841217441843700000013480840845758085044_);" d="M313.5,738.9
						c-0.7,0.2-1.4,0.4-2.1,0.7c-0.7,0.3-1.3,0.6-2,1c-0.6,0.4-1.2,0.9-1.7,1.4s-1,1.1-1.4,1.7c-0.4,0.6-0.8,1.3-1,2
						c-0.3,0.7-0.5,1.4-0.6,2.1c-0.1,0.7-0.2,1.5-0.2,2.2s0.1,1.5,0.2,2.2c0.1,0.7,0.4,1.4,0.6,2.1c0.3,0.7,0.6,1.3,1,2
						s0.9,1.2,1.4,1.7s1.1,1,1.7,1.4c0.6,0.4,1.3,0.8,2,1c0.7,0.3,1.4,0.5,2.1,0.7c0.7,0.1,1.5,0.2,2.2,0.2s1.5-0.1,2.2-0.2
						c0.7-0.2,1.4-0.4,2.1-0.7c0.7-0.3,1.3-0.6,2-1c0.6-0.4,1.2-0.9,1.7-1.4s1-1.1,1.4-1.7s0.8-1.3,1-2c0.3-0.7,0.5-1.4,0.6-2.1
						c0.1-0.7,0.2-1.5,0.2-2.2c0-3-1.2-5.9-3.3-8C321,739.4,317.1,738.2,313.5,738.9L313.5,738.9z"/>
					
						<linearGradient id="SVGID_00000104692251590839139820000010532683914221276307_" gradientUnits="userSpaceOnUse" x1="168.42" y1="747.9055" x2="1331.58" y2="747.9055" gradientTransform="matrix(1 0 0 -1 0 1497.9055)">
						<stop  offset="1.000000e-02" style="stop-color:#EE6983"/>
						<stop  offset="0.1" style="stop-color:#EF7289"/>
						<stop  offset="0.26" style="stop-color:#F48B9B"/>
						<stop  offset="0.45" style="stop-color:#FCB4B9"/>
						<stop  offset="0.52" style="stop-color:#FFC4C4"/>
						<stop  offset="0.99" style="stop-color:#FFF5E4"/>
					</linearGradient>
					<path style="fill:url(#SVGID_00000104692251590839139820000010532683914221276307_);" d="M342.8,724.3
						c-6.2,0-11.3,5.1-11.3,11.3v28.7c0,6.2,5.1,11.3,11.3,11.3s11.3-5.1,11.3-11.3v-28.7C354.1,729.4,349.1,724.3,342.8,724.3z"/>
					
						<linearGradient id="SVGID_00000016043382995261965200000008305825771323206560_" gradientUnits="userSpaceOnUse" x1="168.42" y1="747.9105" x2="1331.58" y2="747.9105" gradientTransform="matrix(1 0 0 -1 0 1497.9055)">
						<stop  offset="1.000000e-02" style="stop-color:#EE6983"/>
						<stop  offset="0.1" style="stop-color:#EF7289"/>
						<stop  offset="0.26" style="stop-color:#F48B9B"/>
						<stop  offset="0.45" style="stop-color:#FCB4B9"/>
						<stop  offset="0.52" style="stop-color:#FFC4C4"/>
						<stop  offset="0.99" style="stop-color:#FFF5E4"/>
					</linearGradient>
					<path style="fill:url(#SVGID_00000016043382995261965200000008305825771323206560_);" d="M370,687.4c-6.2,0-11.3,5.1-11.3,11.3
						v102.6c0,6.2,5.1,11.3,11.3,11.3s11.3-5.1,11.3-11.3V698.7C381.3,692.4,376.2,687.4,370,687.4z"/>
					
						<linearGradient id="SVGID_00000128454849881942114410000001340184508725002675_" gradientUnits="userSpaceOnUse" x1="168.42" y1="747.9055" x2="1331.58" y2="747.9055" gradientTransform="matrix(1 0 0 -1 0 1497.9055)">
						<stop  offset="1.000000e-02" style="stop-color:#EE6983"/>
						<stop  offset="0.1" style="stop-color:#EF7289"/>
						<stop  offset="0.26" style="stop-color:#F48B9B"/>
						<stop  offset="0.45" style="stop-color:#FCB4B9"/>
						<stop  offset="0.52" style="stop-color:#FFC4C4"/>
						<stop  offset="0.99" style="stop-color:#FFF5E4"/>
					</linearGradient>
					<path style="fill:url(#SVGID_00000128454849881942114410000001340184508725002675_);" d="M397.1,724.3
						c-6.2,0-11.3,5.1-11.3,11.3v28.7c0,6.2,5.1,11.3,11.3,11.3s11.3-5.1,11.3-11.3v-28.7C408.4,729.4,403.4,724.3,397.1,724.3z"/>
					
						<linearGradient id="SVGID_00000165939029338079732530000016729377317202090150_" gradientUnits="userSpaceOnUse" x1="168.42" y1="747.9055" x2="1331.58" y2="747.9055" gradientTransform="matrix(1 0 0 -1 0 1497.9055)">
						<stop  offset="1.000000e-02" style="stop-color:#EE6983"/>
						<stop  offset="0.1" style="stop-color:#EF7289"/>
						<stop  offset="0.26" style="stop-color:#F48B9B"/>
						<stop  offset="0.45" style="stop-color:#FCB4B9"/>
						<stop  offset="0.52" style="stop-color:#FFC4C4"/>
						<stop  offset="0.99" style="stop-color:#FFF5E4"/>
					</linearGradient>
					<path style="fill:url(#SVGID_00000165939029338079732530000016729377317202090150_);" d="M424.2,652.5
						c-6.2,0-11.3,5.1-11.3,11.3v172.4c0,6.2,5.1,11.3,11.3,11.3s11.3-5.1,11.3-11.3V663.8C435.6,657.6,430.5,652.5,424.2,652.5z"/>
					
						<linearGradient id="SVGID_00000031888951125742841450000002465076013013120926_" gradientUnits="userSpaceOnUse" x1="168.42" y1="747.9105" x2="1331.58" y2="747.9105" gradientTransform="matrix(1 0 0 -1 0 1497.9055)">
						<stop  offset="1.000000e-02" style="stop-color:#EE6983"/>
						<stop  offset="0.1" style="stop-color:#EF7289"/>
						<stop  offset="0.26" style="stop-color:#F48B9B"/>
						<stop  offset="0.45" style="stop-color:#FCB4B9"/>
						<stop  offset="0.52" style="stop-color:#FFC4C4"/>
						<stop  offset="0.99" style="stop-color:#FFF5E4"/>
					</linearGradient>
					<path style="fill:url(#SVGID_00000031888951125742841450000002465076013013120926_);" d="M451.4,672c-6.2,0-11.3,5.1-11.3,11.3
						v133.4c0,6.2,5.1,11.3,11.3,11.3s11.3-5.1,11.3-11.3V683.3C462.7,677,457.6,672,451.4,672z"/>
					
						<linearGradient id="SVGID_00000088127969056197054360000001811297882157146291_" gradientUnits="userSpaceOnUse" x1="168.42" y1="747.9105" x2="1331.58" y2="747.9105" gradientTransform="matrix(1 0 0 -1 0 1497.9055)">
						<stop  offset="1.000000e-02" style="stop-color:#EE6983"/>
						<stop  offset="0.1" style="stop-color:#EF7289"/>
						<stop  offset="0.26" style="stop-color:#F48B9B"/>
						<stop  offset="0.45" style="stop-color:#FCB4B9"/>
						<stop  offset="0.52" style="stop-color:#FFC4C4"/>
						<stop  offset="0.99" style="stop-color:#FFF5E4"/>
					</linearGradient>
					<path style="fill:url(#SVGID_00000088127969056197054360000001811297882157146291_);" d="M478.5,672c-6.2,0-11.3,5.1-11.3,11.3
						v133.4c0,6.2,5.1,11.3,11.3,11.3s11.3-5.1,11.3-11.3V683.3C489.9,677,484.8,672,478.5,672z"/>
					
						<linearGradient id="SVGID_00000165956368624549732000000010171934664012229265_" gradientUnits="userSpaceOnUse" x1="168.42" y1="747.9055" x2="1331.58" y2="747.9055" gradientTransform="matrix(1 0 0 -1 0 1497.9055)">
						<stop  offset="1.000000e-02" style="stop-color:#EE6983"/>
						<stop  offset="0.1" style="stop-color:#EF7289"/>
						<stop  offset="0.26" style="stop-color:#F48B9B"/>
						<stop  offset="0.45" style="stop-color:#FCB4B9"/>
						<stop  offset="0.52" style="stop-color:#FFC4C4"/>
						<stop  offset="0.99" style="stop-color:#FFF5E4"/>
					</linearGradient>
					<path style="fill:url(#SVGID_00000165956368624549732000000010171934664012229265_);" d="M505.7,724.3
						c-6.2,0-11.3,5.1-11.3,11.3v28.7c0,6.2,5.1,11.3,11.3,11.3s11.3-5.1,11.3-11.3v-28.7C517,729.4,511.9,724.3,505.7,724.3z"/>
					
						<linearGradient id="SVGID_00000115496013943088460590000013093608312774219416_" gradientUnits="userSpaceOnUse" x1="168.42" y1="747.9043" x2="1331.58" y2="747.9043" gradientTransform="matrix(1 0 0 -1 0 1497.9055)">
						<stop  offset="1.000000e-02" style="stop-color:#EE6983"/>
						<stop  offset="0.1" style="stop-color:#EF7289"/>
						<stop  offset="0.26" style="stop-color:#F48B9B"/>
						<stop  offset="0.45" style="stop-color:#FCB4B9"/>
						<stop  offset="0.52" style="stop-color:#FFC4C4"/>
						<stop  offset="0.99" style="stop-color:#FFF5E4"/>
					</linearGradient>
					<path style="fill:url(#SVGID_00000115496013943088460590000013093608312774219416_);" d="M543.3,745.7c-0.3-0.7-0.6-1.3-1-2
						c-0.4-0.6-0.9-1.2-1.4-1.7c-0.5-0.5-1.1-1-1.7-1.4c-0.6-0.4-1.3-0.8-2-1c-0.7-0.3-1.4-0.5-2.1-0.7c-1.5-0.3-3-0.3-4.4,0
						c-0.7,0.2-1.4,0.4-2.1,0.7c-0.7,0.3-1.3,0.6-2,1s-1.2,0.9-1.7,1.4c-0.5,0.5-1,1.1-1.4,1.7c-0.4,0.6-0.8,1.3-1,2
						c-0.3,0.7-0.5,1.4-0.7,2.1c-0.1,0.7-0.2,1.5-0.2,2.2s0.1,1.5,0.2,2.2c0.2,0.7,0.4,1.4,0.7,2.1c0.3,0.7,0.6,1.3,1,2
						c0.4,0.6,0.9,1.2,1.4,1.7c0.5,0.5,1.1,1,1.7,1.4c0.6,0.4,1.3,0.8,2,1c0.7,0.3,1.4,0.5,2.1,0.7c0.7,0.1,1.5,0.2,2.2,0.2
						s1.5-0.1,2.2-0.2c0.7-0.2,1.4-0.4,2.1-0.7c0.7-0.3,1.3-0.6,2-1c0.6-0.4,1.2-0.9,1.7-1.4c0.5-0.5,1-1.1,1.4-1.7
						c0.4-0.6,0.8-1.3,1-2c0.3-0.7,0.5-1.4,0.6-2.1c0.2-0.7,0.2-1.5,0.2-2.2s-0.1-1.5-0.2-2.2C543.8,747.1,543.6,746.4,543.3,745.7
						L543.3,745.7z"/>
					
						<linearGradient id="SVGID_00000106849097751968943140000010358658828809663935_" gradientUnits="userSpaceOnUse" x1="168.42" y1="747.9055" x2="1331.58" y2="747.9055" gradientTransform="matrix(1 0 0 -1 0 1497.9055)">
						<stop  offset="1.000000e-02" style="stop-color:#EE6983"/>
						<stop  offset="0.1" style="stop-color:#EF7289"/>
						<stop  offset="0.26" style="stop-color:#F48B9B"/>
						<stop  offset="0.45" style="stop-color:#FCB4B9"/>
						<stop  offset="0.52" style="stop-color:#FFC4C4"/>
						<stop  offset="0.99" style="stop-color:#FFF5E4"/>
					</linearGradient>
					<path style="fill:url(#SVGID_00000106849097751968943140000010358658828809663935_);" d="M560,640.2c-6.2,0-11.3,5.1-11.3,11.3
						v197c0,6.2,5.1,11.3,11.3,11.3s11.3-5.1,11.3-11.3v-197C571.3,645.2,566.2,640.2,560,640.2z"/>
					
						<linearGradient id="SVGID_00000172417402692085860870000018036467733384519310_" gradientUnits="userSpaceOnUse" x1="168.42" y1="747.9105" x2="1331.58" y2="747.9105" gradientTransform="matrix(1 0 0 -1 0 1497.9055)">
						<stop  offset="1.000000e-02" style="stop-color:#EE6983"/>
						<stop  offset="0.1" style="stop-color:#EF7289"/>
						<stop  offset="0.26" style="stop-color:#F48B9B"/>
						<stop  offset="0.45" style="stop-color:#FCB4B9"/>
						<stop  offset="0.52" style="stop-color:#FFC4C4"/>
						<stop  offset="0.99" style="stop-color:#FFF5E4"/>
					</linearGradient>
					<path style="fill:url(#SVGID_00000172417402692085860870000018036467733384519310_);" d="M587.1,687.4
						c-6.2,0-11.3,5.1-11.3,11.3v102.6c0,6.2,5.1,11.3,11.3,11.3s11.3-5.1,11.3-11.3V698.7C598.4,692.4,593.4,687.4,587.1,687.4z"/>
					
						<linearGradient id="SVGID_00000030449155329894508250000003975530352265834885_" gradientUnits="userSpaceOnUse" x1="168.42" y1="747.9106" x2="1331.58" y2="747.9106" gradientTransform="matrix(1 0 0 -1 0 1497.9055)">
						<stop  offset="1.000000e-02" style="stop-color:#EE6983"/>
						<stop  offset="0.1" style="stop-color:#EF7289"/>
						<stop  offset="0.26" style="stop-color:#F48B9B"/>
						<stop  offset="0.45" style="stop-color:#FCB4B9"/>
						<stop  offset="0.52" style="stop-color:#FFC4C4"/>
						<stop  offset="0.99" style="stop-color:#FFF5E4"/>
					</linearGradient>
					<path style="fill:url(#SVGID_00000030449155329894508250000003975530352265834885_);" d="M614.3,666.9
						c-6.2,0-11.3,5.1-11.3,11.3v143.6c0,6.2,5.1,11.3,11.3,11.3s11.3-5.1,11.3-11.3V678.2C625.6,671.9,620.5,666.9,614.3,666.9
						L614.3,666.9z"/>
					
						<linearGradient id="SVGID_00000047769857931687941180000003452124173381804718_" gradientUnits="userSpaceOnUse" x1="168.42" y1="747.9005" x2="1331.58" y2="747.9005" gradientTransform="matrix(1 0 0 -1 0 1497.9055)">
						<stop  offset="1.000000e-02" style="stop-color:#EE6983"/>
						<stop  offset="0.1" style="stop-color:#EF7289"/>
						<stop  offset="0.26" style="stop-color:#F48B9B"/>
						<stop  offset="0.45" style="stop-color:#FCB4B9"/>
						<stop  offset="0.52" style="stop-color:#FFC4C4"/>
						<stop  offset="0.99" style="stop-color:#FFF5E4"/>
					</linearGradient>
					<path style="fill:url(#SVGID_00000047769857931687941180000003452124173381804718_);" d="M641.4,622.8
						c-6.2,0-11.3,5.1-11.3,11.3V866c0,6.2,5.1,11.3,11.3,11.3s11.3-5.1,11.3-11.3V634.1C652.7,627.8,647.7,622.8,641.4,622.8z"/>
					
						<linearGradient id="SVGID_00000127737502579694014930000003125538985814651026_" gradientUnits="userSpaceOnUse" x1="168.42" y1="747.9055" x2="1331.58" y2="747.9055" gradientTransform="matrix(1 0 0 -1 0 1497.9055)">
						<stop  offset="1.000000e-02" style="stop-color:#EE6983"/>
						<stop  offset="0.1" style="stop-color:#EF7289"/>
						<stop  offset="0.26" style="stop-color:#F48B9B"/>
						<stop  offset="0.45" style="stop-color:#FCB4B9"/>
						<stop  offset="0.52" style="stop-color:#FFC4C4"/>
						<stop  offset="0.99" style="stop-color:#FFF5E4"/>
					</linearGradient>
					<path style="fill:url(#SVGID_00000127737502579694014930000003125538985814651026_);" d="M668.6,662.8
						c-6.2,0-11.3,5.1-11.3,11.3v151.9c0,6.2,5.1,11.3,11.3,11.3s11.3-5.1,11.3-11.3V674.1C679.9,667.8,674.8,662.8,668.6,662.8z"/>
					
						<linearGradient id="SVGID_00000135665095708462642640000004831361324870247855_" gradientUnits="userSpaceOnUse" x1="168.42" y1="747.9055" x2="1331.58" y2="747.9055" gradientTransform="matrix(1 0 0 -1 0 1497.9055)">
						<stop  offset="1.000000e-02" style="stop-color:#EE6983"/>
						<stop  offset="0.1" style="stop-color:#EF7289"/>
						<stop  offset="0.26" style="stop-color:#F48B9B"/>
						<stop  offset="0.45" style="stop-color:#FCB4B9"/>
						<stop  offset="0.52" style="stop-color:#FFC4C4"/>
						<stop  offset="0.99" style="stop-color:#FFF5E4"/>
					</linearGradient>
					<path style="fill:url(#SVGID_00000135665095708462642640000004831361324870247855_);" d="M695.7,647.4
						c-6.2,0-11.3,5.1-11.3,11.3v182.6c0,6.2,5.1,11.3,11.3,11.3s11.3-5.1,11.3-11.3V658.7C707,652.4,702,647.4,695.7,647.4z"/>
					
						<linearGradient id="SVGID_00000067928011202236021560000010183084483506366648_" gradientUnits="userSpaceOnUse" x1="168.42" y1="747.9105" x2="1331.58" y2="747.9105" gradientTransform="matrix(1 0 0 -1 0 1497.9055)">
						<stop  offset="1.000000e-02" style="stop-color:#EE6983"/>
						<stop  offset="0.1" style="stop-color:#EF7289"/>
						<stop  offset="0.26" style="stop-color:#F48B9B"/>
						<stop  offset="0.45" style="stop-color:#FCB4B9"/>
						<stop  offset="0.52" style="stop-color:#FFC4C4"/>
						<stop  offset="0.99" style="stop-color:#FFF5E4"/>
					</linearGradient>
					<path style="fill:url(#SVGID_00000067928011202236021560000010183084483506366648_);" d="M722.8,672c-6.2,0-11.3,5.1-11.3,11.3
						v133.4c0,6.2,5.1,11.3,11.3,11.3s11.3-5.1,11.3-11.3V683.3C734.2,677,729.1,672,722.8,672z"/>
				</g>
			</g>
			
				<linearGradient id="SVGID_00000141434415862504619350000004725290257635537041_" gradientUnits="userSpaceOnUse" x1="168.42" y1="747.9055" x2="1331.58" y2="747.9055" gradientTransform="matrix(1 0 0 -1 0 1497.9055)">
				<stop  offset="1.000000e-02" style="stop-color:#EE6983"/>
				<stop  offset="0.1" style="stop-color:#EF7289"/>
				<stop  offset="0.26" style="stop-color:#F48B9B"/>
				<stop  offset="0.45" style="stop-color:#FCB4B9"/>
				<stop  offset="0.52" style="stop-color:#FFC4C4"/>
				<stop  offset="0.99" style="stop-color:#FFF5E4"/>
			</linearGradient>
			<path style="fill:url(#SVGID_00000141434415862504619350000004725290257635537041_);" d="M750,1331.6
				c-78.5,0-154.7-15.4-226.4-45.7c-69.3-29.3-131.5-71.2-184.9-124.6c-53.4-53.4-95.3-115.6-124.6-184.9
				c-30.3-71.7-45.7-147.9-45.7-226.4s15.4-154.7,45.7-226.4c29.3-69.3,71.2-131.5,124.6-184.9c53.4-53.4,115.6-95.3,184.9-124.6
				c71.7-30.3,147.9-45.7,226.4-45.7s154.7,15.4,226.4,45.7c69.3,29.3,131.4,71.2,184.9,124.6c53.4,53.4,95.3,115.6,124.6,184.9
				c30.3,71.7,45.7,147.9,45.7,226.4s-15.4,154.7-45.7,226.4c-29.3,69.3-71.2,131.4-124.6,184.9c-53.4,53.4-115.6,95.3-184.9,124.6
				C904.7,1316.2,828.5,1331.6,750,1331.6z M750,191c-308.2,0-559,250.8-559,559s250.8,559,559,559s559-250.8,559-559
				S1058.2,191,750,191L750,191z"/>
		</g>
	</g>
	<path class="st42" d="M1085.9,644.1c8.5-8.5,15.5-18.4,24-26.8c20.5-25,77.1-12.2,66.4,25.4c-9.8,45.3-75.6,160.4-34.7,196.3
		c47.6,23.2,128.7-32.9,165.5-63.6c4.2-2.8,8.5-2.8,9.9,0c7.2,10-21.3,35.5-31.2,46.7c-35,32.6-56.1,57.7-116.1,58.4
		s-75.1-23.3-89.3-61.5c-13.2-41-1-102.4,12.4-121.1c-18.4,11.3-40.6,41-54.7,56.6c-12,13.7-83.3,110.2-109.9,99.3
		c-8.4-3.5-11.6-4.7-8.6-25.7c12.8-64,19.8-87.2,37-146.7C912.3,720.8,817,818.2,784.6,864.5c-9.9,15.5-37,47.8-48.3,63.3
		c-15.5,21.2-17.7,22.1-37.5,15.1c-18.2-15.1-2.5-57.2,4.2-74.9c41-93,83.8-197.9,133-288.8c13.7-28.5,51.6-37.2,71.8-8.5
		c7.1,9.9,2.8,21.2-2.8,31.1c-22.2,49.6-52.9,93.8-72.1,145.5c48.8-58.4,102.1-117.6,150.2-173.9c15.5-18.4,29.3-24.6,42.5-16.5
		c23.2,14.2,19.5,27.9,11,52c-12.2,39.4-30.4,87.7-38.8,131.9C1028.7,709.7,1057.3,676.2,1085.9,644.1L1085.9,644.1z"/>
	<path class="st42" d="M637.6,762.1c-43.3,48.5-90.3,18.7-103.2,33.4c-4,4.4-15.4,26.8-14.7,41.8c2.2,47.7,228-104.6,251.1-107.9
		c19.8-2.9,39.3,15.4,21.3,38.9C729,813.2,569,915.2,501.4,902c-13.2-2.6-23.1-10.3-30.1-21.7c-26.8-43.7,12.9-130,48.5-192.4
		c18.4-32.3,38.5-49.6,67.5-52.5C644.2,629.6,678.4,716.6,637.6,762.1L637.6,762.1z M575.9,734.2c36.7,5.1,19.8-40.8,7.3-40.8v-1.1
		C573.4,703.4,544.7,729.8,575.9,734.2z"/>
	<path class="st42" d="M331.3,958.7c3,9.6,9.2,12.7,18.6,9.1c9.4-3.6,20.3-11.2,32.7-22.8c12.4-11.7,25.5-25.9,39.2-42.6
		c13.7-16.8,26.8-33.2,39.2-49.5c12.4-16.2,23.2-31,32.4-44.2c9.1-13.2,15.2-21.8,18.3-25.9c2.5-4.1,5.4-7.9,8.8-11.4
		c3.3-3.5,7.5-7.3,12.6-11.4c2-1.5,4.4-3.2,7.2-5c2.8-1.8,5.2-2.5,7.2-2.3c2,0.3,2.9,1.9,2.7,5c-0.3,3-2.2,8.1-5.7,15.2
		c-3,6.1-7.9,15.4-14.5,27.8c-6.6,12.4-14.7,26.4-24.4,41.9c-9.6,15.5-20.3,31.5-32,48c-11.7,16.5-24.2,31.8-37.7,46.1
		c-13.5,14.2-27.2,26.7-41.1,37.3c-14,10.7-28,17.5-42.2,20.6c-12.7,3-24.4,4.7-35,5c-10.7,0.2-20-3.7-28.2-11.8
		c-7.6-7.6-11.9-18.5-12.9-32.7c-1-14.2-0.4-29.3,1.9-45.3s5.5-31.5,9.5-46.4c4.1-15,7.4-26.5,9.9-34.6c8.1-26.4,15.9-52.4,23.2-78
		c7.4-25.6,14.6-51.4,21.7-77.3c7.6-22.8,14.6-46.3,20.9-70.4c6.3-24.1,12.8-45.8,19.4-65.1c-10.2-0.5-20.6-0.9-31.2-1.1
		c-10.7-0.2-21.3-0.5-32-0.8c-10.7-0.2-21.2-0.9-31.6-1.9c-10.4-1-20.2-2.8-29.3-5.3c-8.1-2-14.1-5.3-17.9-9.9s-5.6-9.1-5.3-13.7
		c0.3-4.6,2.8-8.5,7.6-11.8c4.8-3.3,11.8-5,20.9-5c5.6,0,14.7,0.5,27.4,1.5c12.7,1,26,1.8,40,2.3c14,0.5,26.9,0.6,38.8,0.4
		c11.9-0.2,19.7-1.1,23.2-2.7c1.5-0.5,2.3-1.3,2.3-2.3c3-9.1,6.3-18.8,9.9-28.9c3.5-10.1,7.1-20,10.7-29.7c3.5-9.6,7-18.8,10.3-27.4
		c3.3-8.6,6.2-16,8.8-22.1c2-4.6,6.2-6.5,12.6-5.7c6.3,0.8,12.9,2.9,19.8,6.5c6.9,3.6,12.8,8,17.9,13.3c5.1,5.3,7.4,10.3,6.9,14.9
		c-1.5,13.2-5.1,26.1-10.7,38.8c-5.6,12.7-10.4,27.2-14.5,43.4c32-0.5,59.5-0.9,82.6-1.1c23.1-0.2,45.5-0.4,67.4-0.4
		c7.1,0,14.2,0.1,21.3,0.4c7.1,0.3,12.6,0.9,16.4,1.9c3.8,1,4.7,2.4,2.7,4.2c-2,1.8-8.6,4.2-19.8,7.2c-32,10.2-62.9,17.9-92.9,23.2
		c-30,5.3-59.4,9.3-88.3,11.8c-2.5,0.5-3.7,1-3.4,1.5c0.2,0.5-0.4,2-1.9,4.6c0,0.5-0.3,1-0.8,1.5c-0.5,0.5-0.8,1-0.8,1.5
		c-8.1,22.3-17,47.5-26.6,75.4c-9.6,27.9-19.3,56.6-28.9,86c-9.6,29.4-18.8,58.4-27.4,86.8c-8.6,28.4-16,54.2-22.1,77.3
		c-6.1,23.1-10.5,42.4-13.3,57.9C328.9,945.7,328.8,955.2,331.3,958.7L331.3,958.7z"/>
	<path class="st43" d="M1085.9,644.1c8.5-8.5,15.5-18.4,24-26.8c20.5-25,77.1-12.2,66.4,25.4c-9.8,45.3-75.6,160.4-34.7,196.3
		c47.6,23.2,128.7-32.9,165.5-63.6c4.2-2.8,8.5-2.8,9.9,0c7.2,10-21.3,35.5-31.2,46.7c-35,32.6-56.1,57.7-116.1,58.4
		s-75.1-23.3-89.3-61.5c-13.2-41-1-102.4,12.4-121.1c-18.4,11.3-40.6,41-54.7,56.6c-12,13.7-83.3,110.2-109.9,99.3
		c-8.4-3.5-11.6-4.7-8.6-25.7c12.8-64,19.8-87.2,37-146.7C912.3,720.8,817,818.2,784.6,864.5c-9.9,15.5-37,47.8-48.3,63.3
		c-15.5,21.2-17.7,22.1-37.5,15.1c-18.2-15.1-2.5-57.2,4.2-74.9c41-93,83.8-197.9,133-288.8c13.7-28.5,51.6-37.2,71.8-8.5
		c7.1,9.9,2.8,21.2-2.8,31.1c-22.2,49.6-52.9,93.8-72.1,145.5c48.8-58.4,102.1-117.6,150.2-173.9c15.5-18.4,29.3-24.6,42.5-16.5
		c23.2,14.2,19.5,27.9,11,52c-12.2,39.4-30.4,87.7-38.8,131.9C1028.7,709.7,1057.3,676.2,1085.9,644.1L1085.9,644.1z"/>
	<path class="st43" d="M637.6,762.1c-43.3,48.5-90.3,18.7-103.2,33.4c-4,4.4-15.4,26.8-14.7,41.8c2.2,47.7,228-104.6,251.1-107.9
		c19.8-2.9,39.3,15.4,21.3,38.9C729,813.2,569,915.2,501.4,902c-13.2-2.6-23.1-10.3-30.1-21.7c-26.8-43.7,12.9-130,48.5-192.4
		c18.4-32.3,38.5-49.6,67.5-52.5C644.2,629.6,678.4,716.6,637.6,762.1L637.6,762.1z M575.9,734.2c36.7,5.1,19.8-40.8,7.3-40.8v-1.1
		C573.4,703.4,544.7,729.8,575.9,734.2z"/>
	<path class="st43" d="M331.3,958.7c3,9.6,9.2,12.7,18.6,9.1c9.4-3.6,20.3-11.2,32.7-22.8c12.4-11.7,25.5-25.9,39.2-42.6
		c13.7-16.8,26.8-33.2,39.2-49.5c12.4-16.2,23.2-31,32.4-44.2c9.1-13.2,15.2-21.8,18.3-25.9c2.5-4.1,5.4-7.9,8.8-11.4
		c3.3-3.5,7.5-7.3,12.6-11.4c2-1.5,4.4-3.2,7.2-5c2.8-1.8,5.2-2.5,7.2-2.3c2,0.3,2.9,1.9,2.7,5c-0.3,3-2.2,8.1-5.7,15.2
		c-3,6.1-7.9,15.4-14.5,27.8c-6.6,12.4-14.7,26.4-24.4,41.9c-9.6,15.5-20.3,31.5-32,48c-11.7,16.5-24.2,31.8-37.7,46.1
		c-13.5,14.2-27.2,26.7-41.1,37.3c-14,10.7-28,17.5-42.2,20.6c-12.7,3-24.4,4.7-35,5c-10.7,0.2-20-3.7-28.2-11.8
		c-7.6-7.6-11.9-18.5-12.9-32.7c-1-14.2-0.4-29.3,1.9-45.3s5.5-31.5,9.5-46.4c4.1-15,7.4-26.5,9.9-34.6c8.1-26.4,15.9-52.4,23.2-78
		c7.4-25.6,14.6-51.4,21.7-77.3c7.6-22.8,14.6-46.3,20.9-70.4c6.3-24.1,12.8-45.8,19.4-65.1c-10.2-0.5-20.6-0.9-31.2-1.1
		c-10.7-0.2-21.3-0.5-32-0.8c-10.7-0.2-21.2-0.9-31.6-1.9c-10.4-1-20.2-2.8-29.3-5.3c-8.1-2-14.1-5.3-17.9-9.9s-5.6-9.1-5.3-13.7
		c0.3-4.6,2.8-8.5,7.6-11.8c4.8-3.3,11.8-5,20.9-5c5.6,0,14.7,0.5,27.4,1.5c12.7,1,26,1.8,40,2.3c14,0.5,26.9,0.6,38.8,0.4
		c11.9-0.2,19.7-1.1,23.2-2.7c1.5-0.5,2.3-1.3,2.3-2.3c3-9.1,6.3-18.8,9.9-28.9c3.5-10.1,7.1-20,10.7-29.7c3.5-9.6,7-18.8,10.3-27.4
		c3.3-8.6,6.2-16,8.8-22.1c2-4.6,6.2-6.5,12.6-5.7c6.3,0.8,12.9,2.9,19.8,6.5c6.9,3.6,12.8,8,17.9,13.3c5.1,5.3,7.4,10.3,6.9,14.9
		c-1.5,13.2-5.1,26.1-10.7,38.8c-5.6,12.7-10.4,27.2-14.5,43.4c32-0.5,59.5-0.9,82.6-1.1c23.1-0.2,45.5-0.4,67.4-0.4
		c7.1,0,14.2,0.1,21.3,0.4c7.1,0.3,12.6,0.9,16.4,1.9c3.8,1,4.7,2.4,2.7,4.2c-2,1.8-8.6,4.2-19.8,7.2c-32,10.2-62.9,17.9-92.9,23.2
		c-30,5.3-59.4,9.3-88.3,11.8c-2.5,0.5-3.7,1-3.4,1.5c0.2,0.5-0.4,2-1.9,4.6c0,0.5-0.3,1-0.8,1.5c-0.5,0.5-0.8,1-0.8,1.5
		c-8.1,22.3-17,47.5-26.6,75.4c-9.6,27.9-19.3,56.6-28.9,86c-9.6,29.4-18.8,58.4-27.4,86.8c-8.6,28.4-16,54.2-22.1,77.3
		c-6.1,23.1-10.5,42.4-13.3,57.9C328.9,945.7,328.8,955.2,331.3,958.7L331.3,958.7z"/>
</g>
</svg>
